<?xml version="1.0" encoding="utf-8"?>
<!-- Generator: Adobe Illustrator 23.0.4, SVG Export Plug-In . SVG Version: 6.00 Build 0)  -->
<svg version="1.1" id="Layer_1" xmlns="http://www.w3.org/2000/svg" xmlns:xlink="http://www.w3.org/1999/xlink" x="0px" y="0px"
	 viewBox="0 0 463.3 406.9" style="enable-background:new 0 0 463.3 406.9;" xml:space="preserve">
<style type="text/css">
	.st0{fill-rule:evenodd;clip-rule:evenodd;fill:#FFFFFF;}
	.st1{fill-rule:evenodd;clip-rule:evenodd;fill:#009FFF;}
	.st2{clip-path:url(#SVGID_2_);fill-rule:evenodd;clip-rule:evenodd;fill:#B8A281;}
	.st3{clip-path:url(#SVGID_6_);}
	.st4{clip-path:url(#SVGID_7_);}
	.st5{clip-path:url(#SVGID_11_);}
	.st6{clip-path:url(#SVGID_12_);fill-rule:evenodd;clip-rule:evenodd;fill:#AD9672;}
	.st7{clip-path:url(#SVGID_12_);fill-rule:evenodd;clip-rule:evenodd;fill:#9E8764;}
	.st8{clip-path:url(#SVGID_12_);fill:none;stroke:#C0AD8F;stroke-width:2.656;stroke-miterlimit:1.5;}
	.st9{clip-path:url(#SVGID_12_);fill:#FF1F0D;}
	.st10{clip-path:url(#SVGID_15_);}
	.st11{clip-path:url(#SVGID_18_);}
	.st12{fill-rule:evenodd;clip-rule:evenodd;}
	.st13{clip-path:url(#SVGID_31_);}
	.st14{fill:#232323;}
	.st15{fill:#FFFFFF;stroke:#009FFF;stroke-width:20.313;stroke-linejoin:round;stroke-miterlimit:10;}
	.st16{fill:#FFFFFF;}
	.st17{fill:#FFB900;stroke:#009FFF;stroke-width:20.313;stroke-linecap:round;stroke-linejoin:round;stroke-miterlimit:10;}
	.st18{fill:#FFB900;}
	.st19{fill:#01314E;}
	.st20{fill:#009FFF;}
</style>
<g>
	<path class="st0" d="M239.3,6.5C340.7,6.5,423,88.8,423,190.1c0,101.4-82.3,183.6-183.6,183.6c-101.4,0-183.6-82.3-183.6-183.6
		C55.7,88.8,138,6.5,239.3,6.5L239.3,6.5z"/>
	<path class="st1" d="M239.3,23.7c91.8,0,166.4,74.6,166.4,166.4c0,91.8-74.6,166.4-166.4,166.4S72.9,282,72.9,190.1
		C72.9,98.3,147.5,23.7,239.3,23.7L239.3,23.7z"/>
	<g>
		<defs>
			<path id="SVGID_1_" d="M239.3,23.7c91.8,0,166.4,74.6,166.4,166.4c0,91.8-74.6,166.4-166.4,166.4S72.9,282,72.9,190.1
				C72.9,98.3,147.5,23.7,239.3,23.7L239.3,23.7z"/>
		</defs>
		<clipPath id="SVGID_2_">
			<use xlink:href="#SVGID_1_"  style="overflow:visible;"/>
		</clipPath>
		<polygon class="st2" points="125.1,20.8 170.9,32.9 263.5,11.8 357.1,50.3 480.6,266.3 342.5,422 127.4,428.9 5.7,279.5 
			-57,210.8 -33.8,124.5 85.7,86.2 125.1,20.8 		"/>
	</g>
	<g>
		<defs>
			<path id="SVGID_3_" d="M404.9,147.7C291.2,99.4,213.8-64.7,172.2,31.8c-146.7,42.3-107,207.7-103,349.5
				C222.2,374.7,593.4,199.5,404.9,147.7L404.9,147.7z"/>
		</defs>
		<defs>
			<polygon id="SVGID_4_" points="125.1,20.8 170.9,32.9 263.5,11.8 357.1,50.3 480.6,266.3 342.5,422 127.4,428.9 5.7,279.5 
				-57,210.8 -33.8,124.5 85.7,86.2 125.1,20.8 			"/>
		</defs>
		<defs>
			<path id="SVGID_5_" d="M239.3,23.7c91.8,0,166.4,74.6,166.4,166.4c0,91.8-74.6,166.4-166.4,166.4S72.9,282,72.9,190.1
				C72.9,98.3,147.5,23.7,239.3,23.7L239.3,23.7z"/>
		</defs>
		<clipPath id="SVGID_6_">
			<use xlink:href="#SVGID_3_"  style="overflow:visible;"/>
		</clipPath>
		<clipPath id="SVGID_7_" class="st3">
			<use xlink:href="#SVGID_4_"  style="overflow:visible;"/>
		</clipPath>
		<clipPath id="SVGID_8_" class="st4">
			<use xlink:href="#SVGID_5_"  style="overflow:visible;"/>
		</clipPath>
		<g style="clip-path:url(#SVGID_8_);">
			
				<image style="overflow:visible;" width="1387" height="1387" xlink:href="29DC61BE6A9F2ACD.jpg"  transform="matrix(0.24 0 0 0.24 72.9003 23.7223)">
			</image>
		</g>
	</g>
	<g>
		<defs>
			<polygon id="SVGID_9_" points="125.1,20.8 170.9,32.9 263.5,11.8 357.1,50.3 480.6,266.3 342.5,422 127.4,428.9 5.7,279.5 
				-57,210.8 -33.8,124.5 85.7,86.2 125.1,20.8 			"/>
		</defs>
		<defs>
			<path id="SVGID_10_" d="M239.3,23.7c91.8,0,166.4,74.6,166.4,166.4c0,91.8-74.6,166.4-166.4,166.4S72.9,282,72.9,190.1
				C72.9,98.3,147.5,23.7,239.3,23.7L239.3,23.7z"/>
		</defs>
		<clipPath id="SVGID_11_">
			<use xlink:href="#SVGID_9_"  style="overflow:visible;"/>
		</clipPath>
		<clipPath id="SVGID_12_" class="st5">
			<use xlink:href="#SVGID_10_"  style="overflow:visible;"/>
		</clipPath>
		<path class="st6" d="M361.2,156.2C279.6,121.6,224,3.7,194.1,73c-105.3,30.4-76.8,149.1-74,250.9
			C230,319.2,496.5,193.4,361.2,156.2L361.2,156.2z"/>
		<path class="st7" d="M328.9,167.3c-64.6-27.5-108.7-120.8-132.3-65.9c-83.4,24.1-60.8,118.1-58.6,198.8
			C225,296.4,436.2,196.8,328.9,167.3L328.9,167.3z"/>
		<path class="st8" d="M422.9,70.2L306.4,356.5 M329.1,21.7l-68.5,138.7l-67.9,137.3 M196.6-1.2L72.9,293"/>
		<path class="st9" d="M247,240.6c-1.3,3.7-3.1,7-7,9.4c-2.6,1.6-5.5,2.9-8.4,3.8c-0.2,0-0.4,0.1-0.7,0.2l-1.1-6.1
			c-0.3,0.1,0.2-0.1,0.4-0.1c3.1-1,6.2-2.3,8.5-4.4c1.2-1.1,1.8-3,2.4-4.8C243.1,239.3,245.1,240,247,240.6L247,240.6z M208.8,234.8
			c4.8,3.8,9.7,7.3,14.7,10.7l-3.4,5.3c-5.2-3.5-10.3-7.2-15.3-11.1l3.8-5C208.7,234.8,208.8,234.8,208.8,234.8L208.8,234.8z
			 M340.6,229.4c6.1,0.6,12.3,0.4,18.4,0.6l-0.3,6.2c-6.2-0.3-12.5,0-18.8-0.7l0.5-6.2C340.5,229.4,340.5,229.4,340.6,229.4
			L340.6,229.4z M322.3,216.8c1,4.8,3.9,9,9.6,10.9l-1.9,6c-7-2.2-12.2-8-13.8-15.6C316.2,218.1,322.3,216.6,322.3,216.8
			L322.3,216.8z M188.2,216.3c4.3,4.4,8.7,8.6,13.4,12.5l-4.1,4.7c-4.8-4.1-9.4-8.4-13.8-12.9L188.2,216.3
			C188.1,216.3,188.1,216.3,188.2,216.3L188.2,216.3z M247.7,211c1.8,4.4,2.9,8.9,2.6,13.9c-0.2,2-0.4,4.1-0.8,6.1l-6.2-1
			c0.7-3.9,1.3-7.9,0.2-11.8c-0.4-1.6-1-3.2-1.6-4.8L247.7,211C247.7,211,247.7,211,247.7,211L247.7,211z M170.9,195
			c3.3,5.1,7,9.8,10.9,14.4l-4.6,4.2c-4.2-4.8-8-9.9-11.5-15.2L170.9,195C170.9,194.9,170.9,194.9,170.9,195L170.9,195z
			 M324.6,190.5c-0.1,0.3-0.2,0.6-0.2,0.9c-1.5,5.4-2.3,11-2.6,16.7l0,0.2l-6.2-0.3c0.3-6.5,1.3-12.9,3-19.1l0-0.1
			C320.6,189.3,322.6,189.9,324.6,190.5L324.6,190.5z M230.2,189.6c1.9,3.9,7,5,10.5,9.4c0.8,1.1,1.6,2.2,2.4,3.3l-5.2,3.4
			c-0.1-0.2-0.2-0.4-0.4-0.5c-0.1-0.2-0.2-0.4-0.4-0.5c-2.4-3.4-6.2-5.1-9.8-8.5c-1.1-1.1-2.1-2.4-2.8-3.8
			C224.5,192.2,230.1,189.4,230.2,189.6L230.2,189.6z M159.9,170.3c1.4,5.6,3.5,11.1,6.2,16.2l0.3,0.5l-5.5,2.9
			c-3-5.8-5.4-11.9-6.9-18.1L159.9,170.3C159.8,170.3,159.9,170.3,159.9,170.3L159.9,170.3z M291.1,182.5
			c-5.2,5.5-13.9,7.1-20.3,5.8l1.2-6.1c0.1,0,0.2,0,0.3,0.1c3.1,0.5,6.3-0.1,9.1-1c1.9-0.6,3.7-1.5,5.1-3l0,0
			C288.1,179.7,289.6,181.1,291.1,182.5L291.1,182.5z M258.1,163.2c2,5.4,3.9,11.1,7.6,15.3l-4.6,4.2c-0.1-0.1-0.2-0.2-0.3-0.3
			c-4.1-4.8-6.3-11-8.6-17l-0.1-0.3l5.9-2.2C258.1,163,258.1,163.1,258.1,163.2L258.1,163.2z M230.2,163.1
			c-0.4,6.1-1.1,12.2-1.1,18.4v0.2l-6.2,0c0-6.2,0.8-12.5,1.1-18.7l0-0.2C226.1,162.9,228.2,163,230.2,163.1L230.2,163.1z
			 M332.2,162.8c-0.5,6.3-2.6,12.3-4.7,18.3l-0.2,0.5l-5.9-2c1.9-5.6,3.9-11.2,4.5-17l0-0.3C328.1,162.5,330.1,162.7,332.2,162.8
			L332.2,162.8z M295.6,153.3c0,0.3,0,0.5,0,0.8c-0.2,6,0.7,12-0.1,18l0,0.2l-6.2-0.8c0.8-6-0.2-12.1,0.1-18.2l0-0.3
			C291.5,153.1,293.6,153.2,295.6,153.3L295.6,153.3z M160,144c-1.5,5.7-2,11.6-1.6,17.5l-6.2,0.6c-0.5-6.6,0.1-13.2,1.8-19.6
			C156,142.9,158,143.4,160,144L160,144z M241.7,138c6.3,3.1,10.2,9.7,12.8,15.8l0.1,0.2l-5.7,2.5c-0.1-0.2-0.2-0.5-0.3-0.7
			c-0.6-1.4-1.2-2.7-2-4c-0.2-0.4-0.5-0.8-0.7-1.2c-1.7-2.8-3.9-5.4-6.9-6.8C239,143.6,241.5,137.9,241.7,138L241.7,138z
			 M231.5,142.4c-2.6,0.2-5.7-1.7-2.4,10.4l-6,1.7c-0.2-0.9-0.5-1.8-0.7-2.6c-0.2-0.6-0.3-1.2-0.4-1.9c-0.1-0.5-0.2-1-0.3-1.5
			c-0.8-5.2,0.9-11.5,8.9-12.3l0.4,0C231.1,138.3,231.3,140.4,231.5,142.4L231.5,142.4z M319.3,136c5.3,4.3,10,9.7,11.9,16.4l-6,1.8
			c-1.6-5.4-5.5-9.8-9.9-13.3L319.3,136C319.3,136,319.3,136,319.3,136L319.3,136z M307.4,131.4c0.8,0,1.9,0.1,1.9,0.1l-0.8,6.2
			c-0.1,0-0.2,0-0.3,0c-4.7-0.4-9.1,2.8-11,7.5l-5.8-2.3c2.6-6.4,8.7-11.4,15.8-11.4C307.3,131.4,307.4,131.4,307.4,131.4
			L307.4,131.4z M166.3,116.1c-0.6,6.3-2,12.6-3.6,18.7l-0.1,0.2l-6-1.6c1.6-5.8,2.9-11.8,3.5-17.8l0-0.1
			C162.2,115.7,164.3,115.9,166.3,116.1L166.3,116.1z M159.5,87.1c4.7,5.1,6.7,12.1,7.1,19.1l-6.2,0.4c-0.3-5.5-1.6-11-5.5-15.2
			L159.5,87.1C159.4,87.1,159.4,87.1,159.5,87.1L159.5,87.1z M137.1,70.2c3.2,2.5,6.6,4.8,8.8,8c1,1.4,2.8,1.8,4.5,2.6l0.5,0.2
			l-2.8,5.6c-0.3-0.2-0.7-0.3-1-0.5c-2.4-1.2-4.8-2.3-6.4-4.4c-2.1-2.7-5.1-4.7-7.8-6.9l3.8-4.9C136.9,70,137,70.1,137.1,70.2
			L137.1,70.2z M113.8,53.5c5.1,3.5,10.2,7,15.2,10.7l-3.6,5.1c-5-3.6-10.1-7.2-15.2-10.6l3.4-5.2C113.8,53.5,113.8,53.5,113.8,53.5
			L113.8,53.5z"/>
		<path class="st9" d="M382.8,221.8L357.2,253l-4.8-4l25.6-31.2C379.6,219.2,381.2,220.5,382.8,221.8L382.8,221.8z"/>
		<path class="st9" d="M381.5,246.3l-4.3,4.5l-27.4-26l4.3-4.5C363.3,229,372.4,237.7,381.5,246.3L381.5,246.3z"/>
	</g>
	<path class="st0" d="M290.1,257.5c-11.4,5.5-24.2,8.5-37.7,8.5c-48.4,0-87.6-39.3-87.6-87.6c0-48.4,39.3-87.6,87.6-87.6
		c48.4,0,87.6,39.3,87.6,87.6c0,14.1-3.3,27.4-9.3,39.2c-5.2-5.7-12.7-9.3-21.1-9.3c-15.7,0-28.5,12.8-28.5,28.5
		C281.1,244.9,284.6,252.3,290.1,257.5L290.1,257.5z"/>
	<g>
		<defs>
			<path id="SVGID_13_" d="M276.9,194.5c41.2,0,74.6,33.4,74.6,74.6c0,41.2-33.4,74.6-74.6,74.6s-74.6-33.4-74.6-74.6
				C202.3,227.9,235.7,194.5,276.9,194.5L276.9,194.5z"/>
		</defs>
		<defs>
			<path id="SVGID_14_" d="M290.1,257.5c-11.4,5.5-24.2,8.5-37.7,8.5c-48.4,0-87.6-39.3-87.6-87.6c0-48.4,39.3-87.6,87.6-87.6
				c48.4,0,87.6,39.3,87.6,87.6c0,14.1-3.3,27.4-9.3,39.2c-5.2-5.7-12.7-9.3-21.1-9.3c-15.7,0-28.5,12.8-28.5,28.5
				C281.1,244.9,284.6,252.3,290.1,257.5L290.1,257.5z"/>
		</defs>
		<clipPath id="SVGID_15_">
			<use xlink:href="#SVGID_13_"  style="overflow:visible;"/>
		</clipPath>
		<clipPath id="SVGID_16_" class="st10">
			<use xlink:href="#SVGID_14_"  style="overflow:visible;"/>
		</clipPath>
		<g transform="matrix(1 0 0 1 0 0)" style="clip-path:url(#SVGID_16_);">
			
				<image style="overflow:visible;" width="574" height="299" xlink:href="29DC61BE6A9F2ACF.jpg"  transform="matrix(0.2399 0 0 0.2393 202.2893 194.4763)">
			</image>
		</g>
	</g>
	<g>
		<defs>
			<path id="SVGID_17_" d="M290.1,257.5c-11.4,5.5-24.2,8.5-37.7,8.5c-48.4,0-87.6-39.3-87.6-87.6c0-48.4,39.3-87.6,87.6-87.6
				c48.4,0,87.6,39.3,87.6,87.6c0,14.1-3.3,27.4-9.3,39.2c-5.2-5.7-12.7-9.3-21.1-9.3c-15.7,0-28.5,12.8-28.5,28.5
				C281.1,244.9,284.6,252.3,290.1,257.5L290.1,257.5z"/>
		</defs>
		<clipPath id="SVGID_18_">
			<use xlink:href="#SVGID_17_"  style="overflow:visible;"/>
		</clipPath>
		<g class="st11">
			<defs>
				<path id="SVGID_19_" d="M270.5,194.8c10.9-27.7,37.9-47.4,69.5-47.4c41.2,0,74.6,33.4,74.6,74.6c0,39-30,71.1-68.2,74.4
					c3.3-8.4,5.2-17.6,5.2-27.3c0-41.2-33.4-74.6-74.6-74.6C274.8,194.5,272.6,194.6,270.5,194.8L270.5,194.8z"/>
			</defs>
			<clipPath id="SVGID_20_">
				<use xlink:href="#SVGID_19_"  style="overflow:visible;"/>
			</clipPath>
			<g style="clip-path:url(#SVGID_20_);">
				
					<image style="overflow:visible;" width="152" height="251" xlink:href="29DC61BE6A9F2ACA.jpg"  transform="matrix(0.48 0 0 -0.48 269.2406 267.3436)">
				</image>
			</g>
		</g>
		<g class="st11">
			<defs>
				<path id="SVGID_21_" d="M145.2,161.2c2.1-0.2,4.3-0.3,6.5-0.3c41.2,0,74.7,33.4,74.7,74.6c0,9.6-1.8,18.8-5.2,27.3
					c-2.1,0.2-4.3,0.3-6.5,0.3c-41.2,0-74.6-33.4-74.6-74.6C140.1,178.9,141.9,169.7,145.2,161.2L145.2,161.2z"/>
			</defs>
			<clipPath id="SVGID_22_">
				<use xlink:href="#SVGID_21_"  style="overflow:visible;"/>
			</clipPath>
			<g style="clip-path:url(#SVGID_22_);">
				
					<image style="overflow:visible;" width="136" height="217" xlink:href="29DC61BE6A9F2ACB.jpg"  transform="matrix(0.48 0 0 -0.48 163.7192 264.3523)">
				</image>
			</g>
		</g>
	</g>
	<path class="st0" d="M243.4,76.7c0.9-0.3,1.8-0.4,2.8-0.4c5.4,0,9.8,4.4,9.8,9.8s-4.4,9.8-9.8,9.8c-2.7,0-5.2-1.1-6.9-2.9
		c4-1.2,6.9-4.9,6.9-9.4C246.3,80.9,245.2,78.5,243.4,76.7L243.4,76.7z"/>
	<path class="st0" d="M257.6,80.6c0.7,0.1,1.4,0.3,2.1,0.5c3.8,1.6,5.6,6,3.9,9.8c-1.6,3.8-6,5.6-9.8,3.9c-1.9-0.8-3.3-2.3-4-4.1
		c3.2,0.3,6.3-1.4,7.7-4.5C258.3,84.4,258.3,82.4,257.6,80.6L257.6,80.6z"/>
	<g>
		<defs>
			<path id="SVGID_23_" d="M146,159.7c2.1-0.2,4.3-0.3,6.5-0.3c41.2,0,74.7,33.4,74.7,74.6c0,9.6-1.5,18.2-4.8,26.6
				c-2.1,0.2-4.6,0.9-6.8,0.9c-41.2,0-74.6-33.4-74.6-74.6C140.8,177.4,142.7,168.2,146,159.7L146,159.7z"/>
		</defs>
		<clipPath id="SVGID_24_">
			<use xlink:href="#SVGID_23_"  style="overflow:visible;"/>
		</clipPath>
		<g style="clip-path:url(#SVGID_24_);">
			
				<image style="overflow:visible;" width="188" height="216" xlink:href="29DC61BE6A9F2AD5.jpg"  transform="matrix(0.48 0 0 -0.48 139.466 262.6201)">
			</image>
		</g>
	</g>
	<g>
		<defs>
			<path id="SVGID_25_" d="M116.7,186.3c1.9-0.9,3.9-1.7,6-2.5c38.8-13.9,81.6,6.3,95.5,45.1c3.2,9.1,4.6,18.3,4.3,27.4
				c-1.9,0.9-3.9,1.7-6,2.5c-38.8,13.9-81.6-6.3-95.5-45.1C117.8,204.6,116.4,195.3,116.7,186.3L116.7,186.3z"/>
		</defs>
		<clipPath id="SVGID_26_">
			<use xlink:href="#SVGID_25_"  style="overflow:visible;"/>
		</clipPath>
		<g style="clip-path:url(#SVGID_26_);">
			
				<image style="overflow:visible;" width="228" height="218" xlink:href="29DC61BE6A9F2AD7.jpg"  transform="matrix(0.48 0 0 -0.48 115.1837 273.9597)">
			</image>
		</g>
	</g>
	<g>
		<defs>
			<path id="SVGID_27_" d="M99.5,229.9c1.5-1.5,3.1-2.9,4.8-4.3c32-26,79-21.1,105,10.9c6.1,7.5,10.2,15.6,13,24.3
				c-1.5,1.5-2.9,3.1-4.6,4.4c-32,26-79,21.1-105-10.9C106.6,246.9,102.2,238.6,99.5,229.9L99.5,229.9z"/>
		</defs>
		<clipPath id="SVGID_28_">
			<use xlink:href="#SVGID_27_"  style="overflow:visible;"/>
		</clipPath>
		<g style="clip-path:url(#SVGID_28_);">
			
				<image style="overflow:visible;" width="264" height="194" xlink:href="29DC61BE6A9F2ADA.jpg"  transform="matrix(0.48 0 0 -0.48 98.1862 292.2637)">
			</image>
		</g>
	</g>
	<path class="st12" d="M251.9,126.8c8.5,0,15.4,6.9,15.4,15.4c0,8.5-6.9,15.4-15.4,15.4c-8.5,0-15.4-6.9-15.4-15.4
		C236.5,133.7,243.4,126.8,251.9,126.8L251.9,126.8z"/>
	<path class="st0" d="M258.4,142.2c3.6,0,6.5,2.9,6.5,6.5s-2.9,6.5-6.5,6.5c-3.6,0-6.5-2.9-6.5-6.5S254.8,142.2,258.4,142.2
		L258.4,142.2z"/>
	<g>
		<defs>
			<polygon id="SVGID_29_" points="274.9,96.5 222.1,186 182.2,155.3 179.5,86.5 274.9,96.5 			"/>
		</defs>
		<defs>
			<path id="SVGID_30_" d="M249.4,103.7c20.6,0,37.4,16.7,37.4,37.4s-16.7,37.4-37.4,37.4c-20.6,0-37.4-16.7-37.4-37.4
				C212,120.4,228.7,103.7,249.4,103.7L249.4,103.7z"/>
		</defs>
		<clipPath id="SVGID_31_">
			<use xlink:href="#SVGID_29_"  style="overflow:visible;"/>
		</clipPath>
		<clipPath id="SVGID_32_" class="st13">
			<use xlink:href="#SVGID_30_"  style="overflow:visible;"/>
		</clipPath>
		<g style="clip-path:url(#SVGID_32_);">
			
				<image style="overflow:visible;" width="262" height="312" xlink:href="29DC61BE6A9F2ADB.jpg"  transform="matrix(0.24 0 0 0.2395 211.9983 103.6833)">
			</image>
		</g>
	</g>
	<path class="st14" d="M249.6,100.6c15.5,0.1,30.4,9.9,36.7,24c5.1,11.4,4.5,25.2-1.6,36.2c-9.5,16.9-32.1,25.5-50.9,17.7
		c-12.9-5.4-22.6-17.9-24.6-31.7c-1.7-12.4,2.6-25.4,11.5-34.3c7.4-7.4,17.9-11.8,28.4-11.9C249.3,100.6,249.4,100.6,249.6,100.6
		L249.6,100.6z M249.1,106.8c-13.2,0.1-25.8,8.4-31.1,20.3c-4.3,9.7-3.8,21.5,1.5,30.7c8,14.2,26.9,21.3,42.7,14.9
		c11-4.5,19.2-15,20.9-26.7c2.1-14.4-6.1-29.8-19.4-36C259.2,107.9,254.1,106.8,249.1,106.8L249.1,106.8z"/>
	<path class="st14" d="M318.4,108.1c3.6,0.1,7.4,2,7.2,6.2c-0.2,3.5-2.8,6.3-5.3,8.6l-4.3-4.5c1.2-1.2,2.5-2.4,3.2-3.9
		c-4.7-0.8-9.9,1.9-15.1,4.5c-6.2,3.2-12,7.3-17.4,11.7l-3.9-4.8c9.7-7.9,20.4-15.5,32.2-17.5C316.1,108.2,316.9,108.1,318.4,108.1
		L318.4,108.1z"/>
	<polygon class="st15" points="83.6,350 83.6,283.6 111.9,283.6 111.9,292.6 93.1,292.6 93.1,312.1 109.5,312.1 109.5,321 93.1,321 
		93.1,340.5 111.9,340.5 111.9,350 83.6,350 	"/>
	<path class="st15" d="M137.3,326.8l-4.7-24.1h-0.2l-4.7,24.1H137.3L137.3,326.8z M113.8,350l14.8-66.4h7.9l14.8,66.4h-9.5
		l-2.8-14.3h-13l-2.8,14.3H113.8L113.8,350z"/>
	<path class="st15" d="M155.5,299.3c0-2.7,0.5-5,1.4-7.1c0.9-2.1,2.2-3.8,3.7-5.1c1.5-1.3,3.2-2.3,5.1-3c1.9-0.7,3.8-1,5.7-1
		c1.9,0,3.8,0.3,5.7,1c1.9,0.7,3.6,1.7,5.2,3c1.5,1.4,2.7,3.1,3.6,5.1c0.9,2.1,1.4,4.4,1.4,7.1v3.4h-9.5v-3.4c0-2.3-0.6-4-1.9-5.1
		c-1.3-1.1-2.8-1.6-4.5-1.6c-1.7,0-3.2,0.5-4.5,1.6c-1.3,1.1-1.9,2.8-1.9,5.1v35.1c0,2.3,0.6,4,1.9,5.1c1.3,1.1,2.8,1.6,4.5,1.6
		c1.7,0,3.2-0.5,4.5-1.6c1.3-1.1,1.9-2.8,1.9-5.1v-12.5h-7.6v-8.4h17.1v20.9c0,2.8-0.5,5.2-1.4,7.2c-0.9,2-2.1,3.6-3.6,4.9
		c-1.6,1.4-3.3,2.4-5.2,3.1c-1.9,0.7-3.8,1-5.7,1c-1.9,0-3.8-0.3-5.7-1c-1.9-0.7-3.6-1.7-5.1-3.1c-1.6-1.3-2.8-3-3.7-4.9
		c-0.9-2-1.4-4.4-1.4-7.2L155.5,299.3L155.5,299.3z"/>
	<polygon class="st15" points="195.7,350 195.7,283.6 205.3,283.6 205.3,340.5 224.1,340.5 224.1,350 195.7,350 	"/>
	<polygon class="st15" points="230.2,350 230.2,283.6 258.6,283.6 258.6,292.6 239.8,292.6 239.8,312.1 256.2,312.1 256.2,321 
		239.8,321 239.8,340.5 258.6,340.5 258.6,350 230.2,350 	"/>
	<polygon class="st16" points="83.6,350 83.6,283.6 111.9,283.6 111.9,292.6 93.1,292.6 93.1,312.1 109.5,312.1 109.5,321 93.1,321 
		93.1,340.5 111.9,340.5 111.9,350 83.6,350 	"/>
	<path class="st16" d="M137.3,326.8l-4.7-24.1h-0.2l-4.7,24.1H137.3L137.3,326.8z M113.8,350l14.8-66.4h7.9l14.8,66.4h-9.5
		l-2.8-14.3h-13l-2.8,14.3H113.8L113.8,350z"/>
	<path class="st16" d="M155.5,299.3c0-2.7,0.5-5,1.4-7.1c0.9-2.1,2.2-3.8,3.7-5.1c1.5-1.3,3.2-2.3,5.1-3c1.9-0.7,3.8-1,5.7-1
		c1.9,0,3.8,0.3,5.7,1c1.9,0.7,3.6,1.7,5.2,3c1.5,1.4,2.7,3.1,3.6,5.1c0.9,2.1,1.4,4.4,1.4,7.1v3.4h-9.5v-3.4c0-2.3-0.6-4-1.9-5.1
		c-1.3-1.1-2.8-1.6-4.5-1.6c-1.7,0-3.2,0.5-4.5,1.6c-1.3,1.1-1.9,2.8-1.9,5.1v35.1c0,2.3,0.6,4,1.9,5.1c1.3,1.1,2.8,1.6,4.5,1.6
		c1.7,0,3.2-0.5,4.5-1.6c1.3-1.1,1.9-2.8,1.9-5.1v-12.5h-7.6v-8.4h17.1v20.9c0,2.8-0.5,5.2-1.4,7.2c-0.9,2-2.1,3.6-3.6,4.9
		c-1.6,1.4-3.3,2.4-5.2,3.1c-1.9,0.7-3.8,1-5.7,1c-1.9,0-3.8-0.3-5.7-1c-1.9-0.7-3.6-1.7-5.1-3.1c-1.6-1.3-2.8-3-3.7-4.9
		c-0.9-2-1.4-4.4-1.4-7.2L155.5,299.3L155.5,299.3z"/>
	<polygon class="st16" points="195.7,350 195.7,283.6 205.3,283.6 205.3,340.5 224.1,340.5 224.1,350 195.7,350 	"/>
	<polygon class="st16" points="230.2,350 230.2,283.6 258.6,283.6 258.6,292.6 239.8,292.6 239.8,312.1 256.2,312.1 256.2,321 
		239.8,321 239.8,340.5 258.6,340.5 258.6,350 230.2,350 	"/>
	<path class="st17" d="M37.4,254.4c0,0.2,0,0.3,0.1,0.4s0.2,0,0.4-0.3c2.1-3.1,4.1-6.4,6-9.9c1.9-3.5,3.6-7,5-10.4
		c1.4-3.4,2.6-6.6,3.5-9.7c0.9-3,1.3-5.6,1.3-7.7c0-1.2-0.2-2.1-0.6-2.6c-0.4-0.5-1-0.7-1.7-0.7c-1.6,0-3.2,1.1-4.8,3.3
		c-1.7,2.2-3.2,5.1-4.5,8.8c-1.4,3.7-2.5,8-3.3,13C37.8,243.5,37.4,248.8,37.4,254.4L37.4,254.4z M38.5,258.9
		c-0.1,0.1-0.2,0.3-0.3,0.5c-0.2,0.3-0.3,1-0.3,1.8c0,1.3,0.1,2.6,0.4,3.7c0.3,1.1,0.6,2.1,1,2.9c0.4,0.8,0.9,1.5,1.5,2
		c0.6,0.5,1.1,0.7,1.7,0.7c1.2,0,2.2-0.4,3.2-1.3c1-0.9,1.9-2,2.7-3.3c0.8-1.3,1.6-2.6,2.2-4c0.6-1.4,1.2-2.7,1.7-3.7
		c0.2-0.5,0.5-0.9,0.7-1c0.2-0.2,0.5-0.3,0.8-0.3c0.3,0,0.7,0.1,1,0.3c0.3,0.2,0.4,0.6,0.4,1c0,0.3-0.1,0.7-0.3,1.3
		c-0.5,1.2-1.1,2.5-1.9,4.1c-0.8,1.6-1.8,3.1-2.8,4.7c-1.1,1.5-2.3,2.8-3.6,3.8c-1.3,1-2.8,1.6-4.3,1.6c-1,0-2.1-0.3-3.1-1
		s-1.9-1.7-2.7-3.1c-0.8-1.4-1.5-3.3-2-5.7c-0.5-2.3-0.7-5.2-0.7-8.6c0-6.4,0.5-12.4,1.4-17.9c1-5.5,2.2-10.3,3.9-14.3
		c1.6-4,3.5-7.1,5.7-9.4c2.1-2.3,4.4-3.4,6.9-3.4c1.5,0,2.7,0.5,3.9,1.5c1.1,1,1.7,2.6,1.7,4.8c0,2.3-0.5,5.1-1.5,8.3
		c-1,3.2-2.4,6.7-4,10.5c-1.7,3.7-3.7,7.6-5.9,11.6C43.4,251.2,41,255.1,38.5,258.9L38.5,258.9z"/>
	<path class="st17" d="M55.9,261.2c0,3.3,0.4,5.7,1.1,7.3c0.8,1.5,1.8,2.3,3.1,2.3c1,0,2.1-0.5,3.2-1.6c1.1-1.1,2.1-2.3,3-3.8
		c0.9-1.4,1.7-2.9,2.4-4.3c0.7-1.4,1.2-2.5,1.5-3.2c0.1-0.3,0.3-0.6,0.5-0.8c0.2-0.2,0.5-0.3,0.9-0.3c0.3,0,0.7,0.1,1,0.3
		c0.3,0.2,0.5,0.6,0.5,1c0,0.2-0.1,0.5-0.3,1c-0.4,1-1,2.3-1.8,4c-0.8,1.7-1.7,3.3-2.8,4.9c-1.1,1.6-2.4,3-3.8,4.2
		c-1.4,1.2-3,1.7-4.7,1.7c-2.1,0-3.9-1-5.3-3c-1.5-2-2.2-5.1-2.2-9.4c0-3.3,0.2-6.2,0.5-8.8c0.3-2.5,0.7-4.4,1-5.6
		c0.1-0.5,0.4-1.1,0.8-1.9c0.4-0.7,1-1.1,1.8-1.1c0.7,0,1.2,0.2,1.6,0.6c0.4,0.4,0.6,0.9,0.6,1.5c0,0.4-0.1,0.9-0.4,1.5
		c-0.3,0.6-0.5,1.3-0.8,2.3c-0.3,1-0.6,2.3-0.9,4C56,255.7,55.9,258.1,55.9,261.2L55.9,261.2z M58.2,230.6c0-0.8,0.3-1.6,0.9-2.4
		c0.6-0.8,1.4-1.2,2.3-1.2c0.7,0,1.3,0.3,1.9,0.8c0.6,0.5,0.8,1.2,0.8,2c0,0.8-0.3,1.6-1,2.3c-0.6,0.7-1.4,1.1-2.2,1.1
		c-0.8,0-1.4-0.2-2-0.7C58.4,232.1,58.2,231.4,58.2,230.6L58.2,230.6z"/>
	<path class="st17" d="M73.5,254.4c0,0.2,0,0.3,0.1,0.4s0.2,0,0.4-0.3c2.1-3.1,4.1-6.4,6-9.9c1.9-3.5,3.6-7,5-10.4
		c1.4-3.4,2.6-6.6,3.5-9.7c0.9-3,1.3-5.6,1.3-7.7c0-1.2-0.2-2.1-0.6-2.6c-0.4-0.5-1-0.7-1.7-0.7c-1.6,0-3.2,1.1-4.8,3.3
		c-1.7,2.2-3.2,5.1-4.5,8.8c-1.4,3.7-2.5,8-3.3,13C73.9,243.5,73.5,248.8,73.5,254.4L73.5,254.4z M74.6,258.9
		c-0.1,0.1-0.2,0.3-0.3,0.5c-0.2,0.3-0.3,1-0.3,1.8c0,1.3,0.1,2.6,0.4,3.7c0.3,1.1,0.6,2.1,1,2.9c0.4,0.8,0.9,1.5,1.5,2
		c0.5,0.5,1.1,0.7,1.7,0.7c1.2,0,2.2-0.4,3.2-1.3c1-0.9,1.9-2,2.7-3.3c0.8-1.3,1.6-2.6,2.2-4c0.6-1.4,1.2-2.7,1.7-3.7
		c0.2-0.5,0.5-0.9,0.7-1c0.2-0.2,0.5-0.3,0.8-0.3c0.3,0,0.7,0.1,1,0.3s0.4,0.6,0.4,1c0,0.3-0.1,0.7-0.3,1.3
		c-0.5,1.2-1.1,2.5-1.9,4.1c-0.8,1.6-1.8,3.1-2.8,4.7c-1.1,1.5-2.3,2.8-3.6,3.8c-1.3,1-2.8,1.6-4.3,1.6c-1,0-2.1-0.3-3.1-1
		c-1-0.6-1.9-1.7-2.7-3.1c-0.8-1.4-1.5-3.3-2-5.7c-0.5-2.3-0.7-5.2-0.7-8.6c0-6.4,0.5-12.4,1.4-17.9c1-5.5,2.2-10.3,3.9-14.3
		c1.6-4,3.5-7.1,5.7-9.4c2.1-2.3,4.4-3.4,6.9-3.4c1.4,0,2.7,0.5,3.9,1.5c1.1,1,1.7,2.6,1.7,4.8c0,2.3-0.5,5.1-1.5,8.3
		c-1,3.2-2.4,6.7-4,10.5c-1.7,3.7-3.7,7.6-5.9,11.6C79.5,251.2,77.1,255.1,74.6,258.9L74.6,258.9z"/>
	<path class="st18" d="M37.4,254.4c0,0.2,0,0.3,0.1,0.4s0.2,0,0.4-0.3c2.1-3.1,4.1-6.4,6-9.9c1.9-3.5,3.6-7,5-10.4
		c1.4-3.4,2.6-6.6,3.5-9.7c0.9-3,1.3-5.6,1.3-7.7c0-1.2-0.2-2.1-0.6-2.6c-0.4-0.5-1-0.7-1.7-0.7c-1.6,0-3.2,1.1-4.8,3.3
		c-1.7,2.2-3.2,5.1-4.5,8.8c-1.4,3.7-2.5,8-3.3,13C37.8,243.5,37.4,248.8,37.4,254.4L37.4,254.4z M38.5,258.9
		c-0.1,0.1-0.2,0.3-0.3,0.5c-0.2,0.3-0.3,1-0.3,1.8c0,1.3,0.1,2.6,0.4,3.7c0.3,1.1,0.6,2.1,1,2.9c0.4,0.8,0.9,1.5,1.5,2
		c0.6,0.5,1.1,0.7,1.7,0.7c1.2,0,2.2-0.4,3.2-1.3c1-0.9,1.9-2,2.7-3.3c0.8-1.3,1.6-2.6,2.2-4c0.6-1.4,1.2-2.7,1.7-3.7
		c0.2-0.5,0.5-0.9,0.7-1c0.2-0.2,0.5-0.3,0.8-0.3c0.3,0,0.7,0.1,1,0.3c0.3,0.2,0.4,0.6,0.4,1c0,0.3-0.1,0.7-0.3,1.3
		c-0.5,1.2-1.1,2.5-1.9,4.1c-0.8,1.6-1.8,3.1-2.8,4.7c-1.1,1.5-2.3,2.8-3.6,3.8c-1.3,1-2.8,1.6-4.3,1.6c-1,0-2.1-0.3-3.1-1
		s-1.9-1.7-2.7-3.1c-0.8-1.4-1.5-3.3-2-5.7c-0.5-2.3-0.7-5.2-0.7-8.6c0-6.4,0.5-12.4,1.4-17.9c1-5.5,2.2-10.3,3.9-14.3
		c1.6-4,3.5-7.1,5.7-9.4c2.1-2.3,4.4-3.4,6.9-3.4c1.5,0,2.7,0.5,3.9,1.5c1.1,1,1.7,2.6,1.7,4.8c0,2.3-0.5,5.1-1.5,8.3
		c-1,3.2-2.4,6.7-4,10.5c-1.7,3.7-3.7,7.6-5.9,11.6C43.4,251.2,41,255.1,38.5,258.9L38.5,258.9z"/>
	<path class="st18" d="M55.9,261.2c0,3.3,0.4,5.7,1.1,7.3c0.8,1.5,1.8,2.3,3.1,2.3c1,0,2.1-0.5,3.2-1.6c1.1-1.1,2.1-2.3,3-3.8
		c0.9-1.4,1.7-2.9,2.4-4.3c0.7-1.4,1.2-2.5,1.5-3.2c0.1-0.3,0.3-0.6,0.5-0.8c0.2-0.2,0.5-0.3,0.9-0.3c0.3,0,0.7,0.1,1,0.3
		c0.3,0.2,0.5,0.6,0.5,1c0,0.2-0.1,0.5-0.3,1c-0.4,1-1,2.3-1.8,4c-0.8,1.7-1.7,3.3-2.8,4.9c-1.1,1.6-2.4,3-3.8,4.2
		c-1.4,1.2-3,1.7-4.7,1.7c-2.1,0-3.9-1-5.3-3c-1.5-2-2.2-5.1-2.2-9.4c0-3.3,0.2-6.2,0.5-8.8c0.3-2.5,0.7-4.4,1-5.6
		c0.1-0.5,0.4-1.1,0.8-1.9c0.4-0.7,1-1.1,1.8-1.1c0.7,0,1.2,0.2,1.6,0.6c0.4,0.4,0.6,0.9,0.6,1.5c0,0.4-0.1,0.9-0.4,1.5
		c-0.3,0.6-0.5,1.3-0.8,2.3c-0.3,1-0.6,2.3-0.9,4C56,255.7,55.9,258.1,55.9,261.2L55.9,261.2z M58.2,230.6c0-0.8,0.3-1.6,0.9-2.4
		c0.6-0.8,1.4-1.2,2.3-1.2c0.7,0,1.3,0.3,1.9,0.8c0.6,0.5,0.8,1.2,0.8,2c0,0.8-0.3,1.6-1,2.3c-0.6,0.7-1.4,1.1-2.2,1.1
		c-0.8,0-1.4-0.2-2-0.7C58.4,232.1,58.2,231.4,58.2,230.6L58.2,230.6z"/>
	<path class="st18" d="M73.5,254.4c0,0.2,0,0.3,0.1,0.4s0.2,0,0.4-0.3c2.1-3.1,4.1-6.4,6-9.9c1.9-3.5,3.6-7,5-10.4
		c1.4-3.4,2.6-6.6,3.5-9.7c0.9-3,1.3-5.6,1.3-7.7c0-1.2-0.2-2.1-0.6-2.6c-0.4-0.5-1-0.7-1.7-0.7c-1.6,0-3.2,1.1-4.8,3.3
		c-1.7,2.2-3.2,5.1-4.5,8.8c-1.4,3.7-2.5,8-3.3,13C73.9,243.5,73.5,248.8,73.5,254.4L73.5,254.4z M74.6,258.9
		c-0.1,0.1-0.2,0.3-0.3,0.5c-0.2,0.3-0.3,1-0.3,1.8c0,1.3,0.1,2.6,0.4,3.7c0.3,1.1,0.6,2.1,1,2.9c0.4,0.8,0.9,1.5,1.5,2
		c0.5,0.5,1.1,0.7,1.7,0.7c1.2,0,2.2-0.4,3.2-1.3c1-0.9,1.9-2,2.7-3.3c0.8-1.3,1.6-2.6,2.2-4c0.6-1.4,1.2-2.7,1.7-3.7
		c0.2-0.5,0.5-0.9,0.7-1c0.2-0.2,0.5-0.3,0.8-0.3c0.3,0,0.7,0.1,1,0.3s0.4,0.6,0.4,1c0,0.3-0.1,0.7-0.3,1.3
		c-0.5,1.2-1.1,2.5-1.9,4.1c-0.8,1.6-1.8,3.1-2.8,4.7c-1.1,1.5-2.3,2.8-3.6,3.8c-1.3,1-2.8,1.6-4.3,1.6c-1,0-2.1-0.3-3.1-1
		c-1-0.6-1.9-1.7-2.7-3.1c-0.8-1.4-1.5-3.3-2-5.7c-0.5-2.3-0.7-5.2-0.7-8.6c0-6.4,0.5-12.4,1.4-17.9c1-5.5,2.2-10.3,3.9-14.3
		c1.6-4,3.5-7.1,5.7-9.4c2.1-2.3,4.4-3.4,6.9-3.4c1.4,0,2.7,0.5,3.9,1.5c1.1,1,1.7,2.6,1.7,4.8c0,2.3-0.5,5.1-1.5,8.3
		c-1,3.2-2.4,6.7-4,10.5c-1.7,3.7-3.7,7.6-5.9,11.6C79.5,251.2,77.1,255.1,74.6,258.9L74.6,258.9z"/>
	<polygon class="st15" points="290.6,350 290.6,283.6 299.8,283.6 312,318.8 312.2,318.8 324.3,283.6 333.5,283.6 333.5,350 
		324,350 324,309.6 323.8,309.6 314.4,338.2 309.7,338.2 300.3,309.6 300.1,309.6 300.1,350 290.6,350 	"/>
	<polygon class="st15" points="342.8,350 342.8,283.6 352.3,283.6 352.3,350 342.8,350 	"/>
	<path class="st15" d="M391.7,331.1v4.1c0,2.1-0.4,4-1.2,5.8c-0.8,1.8-1.9,3.5-3.2,4.9c-1.4,1.4-3,2.6-4.8,3.4
		c-1.8,0.8-3.8,1.3-5.9,1.3c-1.8,0-3.6-0.2-5.5-0.7c-1.9-0.5-3.5-1.4-5-2.6c-1.5-1.2-2.7-2.8-3.7-4.8c-1-2-1.4-4.5-1.4-7.5v-36.6
		c0-2.2,0.4-4.2,1.1-6.1c0.7-1.9,1.8-3.5,3.2-4.8c1.4-1.4,3-2.4,4.9-3.2c1.9-0.8,4-1.2,6.3-1.2c4.5,0,8.1,1.5,10.9,4.4
		c1.4,1.4,2.4,3.1,3.2,5.1c0.8,2,1.2,4.1,1.2,6.4v3.7h-9.5v-3.2c0-1.9-0.5-3.5-1.6-4.8s-2.5-2.1-4.3-2.1c-2.4,0-3.9,0.7-4.7,2.2
		c-0.8,1.5-1.2,3.3-1.2,5.5v33.9c0,1.9,0.4,3.5,1.3,4.8c0.8,1.3,2.3,2,4.5,2c0.6,0,1.3-0.1,2-0.3c0.7-0.2,1.4-0.6,2-1.1
		c0.6-0.5,1-1.2,1.4-2.1c0.4-0.9,0.6-2,0.6-3.3v-3.3L391.7,331.1L391.7,331.1z"/>
	<polygon class="st15" points="399.5,350 399.5,283.6 409,283.6 409,312.1 420.7,312.1 420.7,283.6 430.2,283.6 430.2,350 
		420.7,350 420.7,320.5 409,320.5 409,350 399.5,350 	"/>
	<polygon class="st16" points="290.6,350 290.6,283.6 299.8,283.6 312,318.8 312.2,318.8 324.3,283.6 333.5,283.6 333.5,350 
		324,350 324,309.6 323.8,309.6 314.4,338.2 309.7,338.2 300.3,309.6 300.1,309.6 300.1,350 290.6,350 	"/>
	<polygon class="st16" points="342.8,350 342.8,283.6 352.3,283.6 352.3,350 342.8,350 	"/>
	<path class="st16" d="M391.7,331.1v4.1c0,2.1-0.4,4-1.2,5.8c-0.8,1.8-1.9,3.5-3.2,4.9c-1.4,1.4-3,2.6-4.8,3.4
		c-1.8,0.8-3.8,1.3-5.9,1.3c-1.8,0-3.6-0.2-5.5-0.7c-1.9-0.5-3.5-1.4-5-2.6c-1.5-1.2-2.7-2.8-3.7-4.8c-1-2-1.4-4.5-1.4-7.5v-36.6
		c0-2.2,0.4-4.2,1.1-6.1c0.7-1.9,1.8-3.5,3.2-4.8c1.4-1.4,3-2.4,4.9-3.2c1.9-0.8,4-1.2,6.3-1.2c4.5,0,8.1,1.5,10.9,4.4
		c1.4,1.4,2.4,3.1,3.2,5.1c0.8,2,1.2,4.1,1.2,6.4v3.7h-9.5v-3.2c0-1.9-0.5-3.5-1.6-4.8s-2.5-2.1-4.3-2.1c-2.4,0-3.9,0.7-4.7,2.2
		c-0.8,1.5-1.2,3.3-1.2,5.5v33.9c0,1.9,0.4,3.5,1.3,4.8c0.8,1.3,2.3,2,4.5,2c0.6,0,1.3-0.1,2-0.3c0.7-0.2,1.4-0.6,2-1.1
		c0.6-0.5,1-1.2,1.4-2.1c0.4-0.9,0.6-2,0.6-3.3v-3.3L391.7,331.1L391.7,331.1z"/>
	<polygon class="st16" points="399.5,350 399.5,283.6 409,283.6 409,312.1 420.7,312.1 420.7,283.6 430.2,283.6 430.2,350 
		420.7,350 420.7,320.5 409,320.5 409,350 399.5,350 	"/>
	<polygon class="st1" points="391.4,312 380.2,312 380.2,323.2 391.4,323.2 391.4,312 	"/>
	<path class="st19" d="M298,380.8c0.4,0,0.8,0.2,1.2,0.5c0.3,0.3,0.5,0.7,0.5,1.2c0,0.4-0.2,0.8-0.5,1.2s-0.7,0.5-1.2,0.5
		c-4.4,0-9.2-2.6-14.2-7.7c-2.6-2.6-5.2-5.8-7.7-9.6c-1.7,1.1-3.4,2.1-5.1,3c-1.7,0.9-3.4,1.6-5,2.2c-4,1.4-7.5,2-10.3,1.7
		c-2-0.3-3.7-0.9-4.9-2c-1.4-1.1-2.3-2.7-2.8-4.7c-0.7-3,0.6-6.7,3.7-11.1c1.3-1.9,2.8-3.8,4.5-5.8c1.7-2,3.5-4,5.5-6.1
		c0.4-0.4,0.8-0.9,1.2-1.3c0.4-0.4,0.8-0.8,1.2-1.3c-2.2-6.8-3.3-12.9-3.2-18.2c0.1-2.5,0.4-4.8,1-6.7c0.6-1.9,1.4-3.6,2.4-4.9
		c1-1.3,2.1-2.3,3.4-3c1.3-0.7,2.5-1,3.8-1c2.2,0,4.4,0.3,6.6,1c2.2,0.6,4.1,1.8,5.9,3.4c3,2.8,4.6,6.3,4.7,10.5
		c0,2.1-0.5,4.2-1.4,6.3c-0.9,2.1-2.2,4.2-3.7,6.3s-3.3,4.2-5.2,6.3c-2,2.1-4,4.2-6,6.2l-1.7,1.8c0.9,2.2,2,4.4,3.1,6.6
		c1.1,2.2,2.3,4.2,3.6,6.2c3.5-2.5,6.6-5.2,9.3-8.1c2.7-2.9,4.7-5.8,6.1-8.6c0.2-0.5,0.6-0.8,1-0.9c0.4-0.1,0.8,0,1.2,0.2
		c0.4,0.2,0.6,0.5,0.8,0.9c0.2,0.4,0.2,0.8,0,1.3c-0.8,1.7-1.9,3.3-3.1,5.1c-1.2,1.7-2.7,3.5-4.4,5.2c-1.3,1.4-2.7,2.7-4.2,4
		c-1.5,1.3-3.1,2.5-4.7,3.7c2.2,3.4,4.6,6.5,7.3,9.1C290.6,378.6,294.5,380.8,298,380.8L298,380.8z M264.1,323.2
		c-0.1,2.2,0.1,4.6,0.6,7.2c0.4,2.6,1.1,5.3,1.9,8.1c1.1-1.2,2.1-2.4,3-3.7c1-1.2,1.9-2.4,2.7-3.6c3.1-4.5,4.6-8.2,4.6-11.3
		c-0.1-2-0.4-3.7-1.1-5.1c-0.7-1.3-1.5-2.3-2.5-2.9c-1-0.6-2-0.8-3.2-0.6c-1.1,0.2-2.1,0.7-3.1,1.7c-0.9,0.9-1.7,2.3-2.3,3.9
		S263.9,320.8,264.1,323.2L264.1,323.2z M264.8,368.9c1.6-0.6,3.1-1.2,4.7-2c1.6-0.8,3.2-1.7,4.8-2.8c-1.2-1.9-2.3-3.8-3.4-5.9
		c-1.1-2-2.1-4.1-3-6.2c-1.3,1.3-2.5,2.7-3.6,4c-1.1,1.3-2.1,2.6-2.9,3.8c-0.8,1.2-1.4,2.4-1.7,3.5c-0.4,1.1-0.5,2.1-0.2,3
		c0.4,1.8,1,2.9,1.8,3.2C262,369.6,263.2,369.5,264.8,368.9L264.8,368.9z"/>
	<path class="st20" d="M271.6,303.7c8.1,0.1,16.4,4.2,19.5,12c3.9,9.7-2.9,20.7-11.2,29.5c-1.5,1.6-3,3.2-4.6,4.7l-0.3,0.3
		c0.9,2.1,1.9,4.1,3,6l0.1,0.2c4.4-3.6,8.4-7.8,10.8-12.8c0,0,1.6-2.7,4.2-2.9c4.1-0.5,7.8,4,5.5,8.5c-3.5,6.6-8.7,12.1-14.3,16.5
		l-0.1,0.1c1,1.3,2,2.6,3.2,3.9c3.1,3.5,6.8,7.2,10.7,7.2c0,0,1.3,0.1,2.3,0.6c3.5,1.7,4.1,7.5,0.5,9.8c-6.2,3.9-16.6-4.2-22.1-10.4
		c-1.3-1.5-2.5-3-3.7-4.6L275,372c-0.2,0.1-0.5,0.3-0.7,0.4c-7,3.8-14.9,7.4-22.8,4.2c-0.5-0.2-1.1-0.5-1.6-0.8
		c-2.8-1.6-4.8-4.5-5.6-7.7c0,0-0.3-1.2-0.3-2.5c-0.2-6.3,4.1-11.8,7.8-16.4c2.5-3,5.1-5.9,7.8-8.8c-0.1-0.3-0.2-0.5-0.2-0.8
		c-2.4-8.5-3.9-17.8-0.7-26c2.1-5.3,6.8-9.8,12.6-10C271.4,303.7,271.4,303.7,271.6,303.7L271.6,303.7z M279.5,313.5
		c0.9,2,1.3,4.2,1.3,6.4c0,0.3-0.4,4.4-2,7.9c-0.6,1.3-1.3,2.5-2,3.7c-2.1,3.3-4.6,6.4-7.1,9.3c0,0-1.1,1.1-2,1.4
		c0,0-1.7,2.6-3.2,4.4c-4.4,4.7-9.1,9.2-11.8,15.2c-1.3,2.9-1.7,7.4,3.5,8c0.3,0,0.7,0.6,0.2-0.6c-2.7-6.5,3-13.9,8.5-19.8l1.9-1.5
		c0.4-1,0.3-0.7,0.8-1.4l1.8-1.9c5.7-5.7,12-11.3,14.6-18.7c0.4-1,0.6-2,0.6-3.1C284.8,319.4,282.8,315.7,279.5,313.5
		C279.6,313.6,279.5,313.5,279.5,313.5L279.5,313.5z M266.9,358.9c-1.5,1.9-3.4,3.8-3.7,6.2c0,0.4,1.2-0.3,2.1-0.6
		c1.2-0.5,2.4-1.1,3.5-1.7C268.9,362.8,267.9,360.6,266.9,358.9C267,358.9,266.9,358.9,266.9,358.9L266.9,358.9z M270.9,315.3
		c-2.6,0.1-2.9,5.9-3,8.4c0,2,0.2,4.1,0.5,6.1l0.6-0.7c1.9-2.7,3.8-5.7,3.9-8.9C273.1,318,272.2,315.3,270.9,315.3L270.9,315.3z"/>
	<path class="st18" d="M298,380.8c0.4,0,0.8,0.2,1.2,0.5c0.3,0.3,0.5,0.7,0.5,1.2c0,0.4-0.2,0.8-0.5,1.2s-0.7,0.5-1.2,0.5
		c-4.4,0-9.2-2.6-14.2-7.7c-2.6-2.6-5.2-5.8-7.7-9.6c-1.7,1.1-3.4,2.1-5.1,3c-1.7,0.9-3.4,1.6-5,2.2c-4,1.4-7.5,2-10.3,1.7
		c-2-0.3-3.7-0.9-4.9-2c-1.4-1.1-2.3-2.7-2.8-4.7c-0.7-3,0.6-6.7,3.7-11.1c1.3-1.9,2.8-3.8,4.5-5.8c1.7-2,3.5-4,5.5-6.1
		c0.4-0.4,0.8-0.9,1.2-1.3c0.4-0.4,0.8-0.8,1.2-1.3c-2.2-6.8-3.3-12.9-3.2-18.2c0.1-2.5,0.4-4.8,1-6.7c0.6-1.9,1.4-3.6,2.4-4.9
		c1-1.3,2.1-2.3,3.4-3c1.3-0.7,2.5-1,3.8-1c2.2,0,4.4,0.3,6.6,1c2.2,0.6,4.1,1.8,5.9,3.4c3,2.8,4.6,6.3,4.7,10.5
		c0,2.1-0.5,4.2-1.4,6.3c-0.9,2.1-2.2,4.2-3.7,6.3s-3.3,4.2-5.2,6.3c-2,2.1-4,4.2-6,6.2l-1.7,1.8c0.9,2.2,2,4.4,3.1,6.6
		c1.1,2.2,2.3,4.2,3.6,6.2c3.5-2.5,6.6-5.2,9.3-8.1c2.7-2.9,4.7-5.8,6.1-8.6c0.2-0.5,0.6-0.8,1-0.9c0.4-0.1,0.8,0,1.2,0.2
		c0.4,0.2,0.6,0.5,0.8,0.9c0.2,0.4,0.2,0.8,0,1.3c-0.8,1.7-1.9,3.3-3.1,5.1c-1.2,1.7-2.7,3.5-4.4,5.2c-1.3,1.4-2.7,2.7-4.2,4
		c-1.5,1.3-3.1,2.5-4.7,3.7c2.2,3.4,4.6,6.5,7.3,9.1C290.6,378.6,294.5,380.8,298,380.8L298,380.8z M264.1,323.2
		c-0.1,2.2,0.1,4.6,0.6,7.2c0.4,2.6,1.1,5.3,1.9,8.1c1.1-1.2,2.1-2.4,3-3.7c1-1.2,1.9-2.4,2.7-3.6c3.1-4.5,4.6-8.2,4.6-11.3
		c-0.1-2-0.4-3.7-1.1-5.1c-0.7-1.3-1.5-2.3-2.5-2.9c-1-0.6-2-0.8-3.2-0.6c-1.1,0.2-2.1,0.7-3.1,1.7c-0.9,0.9-1.7,2.3-2.3,3.9
		S263.9,320.8,264.1,323.2L264.1,323.2z M264.8,368.9c1.6-0.6,3.1-1.2,4.7-2c1.6-0.8,3.2-1.7,4.8-2.8c-1.2-1.9-2.3-3.8-3.4-5.9
		c-1.1-2-2.1-4.1-3-6.2c-1.3,1.3-2.5,2.7-3.6,4c-1.1,1.3-2.1,2.6-2.9,3.8c-0.8,1.2-1.4,2.4-1.7,3.5c-0.4,1.1-0.5,2.1-0.2,3
		c0.4,1.8,1,2.9,1.8,3.2C262,369.6,263.2,369.5,264.8,368.9L264.8,368.9z"/>
</g>
</svg>
